<?xml version="1.0" encoding="utf-8"?>
<!-- Generator: Adobe Illustrator 18.1.1, SVG Export Plug-In . SVG Version: 6.00 Build 0)  -->
<svg version="1.1" xmlns="http://www.w3.org/2000/svg" xmlns:xlink="http://www.w3.org/1999/xlink" x="0px" y="0px"
	 viewBox="0 0 500 1084" enable-background="new 0 0 500 1084" xml:space="preserve">
<g id="fon-back">
	<image overflow="visible" width="500" height="1084" xlink:href="img/back.jpg" >
	</image>
</g>
<g id="shoulder">
	<path fill="none" d="M436.3,297c0,0,5.3-22.7,3.3-32.7c-2-10-12.7-34.3-25.3-42.7c-12.7-8.3-22.7-17.7-47.7-18.7s-25.7,0-25.7,0
		s-19.3,44.3-17.3,49c2,4.7,3.7,5.7,3.7,5.7s13-1.3,22.3,0c9.3,1.3,30.7,9.3,44.3,17c13.7,7.7,28.3,22.3,35.3,22.3
		S436.3,297,436.3,297z"/>
</g>
<g id="triceps">
	<path fill="none" d="M395.3,277.7c0,0-7.7,35-13.5,44.7c-5.8,9.7-14.5,23-14.5,23l14.5,20.3c0,0,10.8,15.7,20.5,16.7
		c9.7,1,9.7,1,9.7,1l8.7,5.7c0,0,3.6-0.3,5.8-2.5s6.5-43.5,9.3-46.5s4.3-5.5,7.5-5s3.3,0.5,3.3,0.5s-0.3-2.8,5.8,14s6,16.8,6,16.8
		s3-30.8-1.5-41.5s-9.1-18.9-14.5-24.5s-10-2-10-2s-4.3,1.8-5.5,0.5s-2.4-5.5-16.9-13.3C395.3,277.7,395.3,277.7,395.3,277.7z"/>
</g>
<g id="trapezium">
	<path fill="none" d="M356.3,199.8c0,0-17.5-14-38.8-19.5s-29-9-40.8-23.3s-36.3-16-36.3-16s3,38.5,13.5,47s17.3,14.1,29.8,14.6
		s50-0.8,61.3-1.8S356.3,199.8,356.3,199.8z"/>
</g>
<g id="back">
	<path fill="none" d="M254.5,365.8c0,0-4.5-63-8.3-86.5s-11-45.2-8.8-76.6s-0.5-42.9,4.5-32.4s14.6,22.8,24.3,27
		c9.8,4.3,46.1,5.1,54.9,4.7c8.8-0.4,19.8,1,19.8,1s-16,36.3-17.5,56s-7.3,39.8-14.8,49.8S289.5,334.3,272,350
		S254.5,365.8,254.5,365.8z"/>
</g>
<g id="back_1_">
	<path fill="none" d="M254,369.3c0,0,6-2.5,23,22.8s17,25.3,17,25.3s15.8-17.8,24.5-24s23.4-14.5,39.5-36.5s24.9-30.9,30.6-52.6
		c5.7-21.8,6-23.2,6-23.2S357.8,304.8,347,308s-40.6,9.5-42,8.5s-2.8,2.9-26.9,27.8S254,369.3,254,369.3z"/>
</g>
<g id="small-back">
	<path fill="none" d="M254,500.8l9.8-12.5c0,0,3.8-24.3,7.3-30.8s21.5-37.3,22.3-38.8s-10-22.3-24-34.8S254,370.5,254,370.5V500.8z"
		/>
</g>
<g id="butt">
	<path fill="none" d="M255.5,503.3c0.3-1,12.5-19,19.8-22.5s10.3-4.5,11.8-4.8s17-14.3,30.3-15.5s24.5,1.8,24.8,2.5s4,5.3,6.5,10.8
		s-9.8,34.3-11.3,37.3s-3.3,5.3-0.5,17s10.5,24.3,9,35.8s-5.5,19.8-18.5,24.8s-20,6.8-32,5.5s-29.5-4-32.3-6.5s-6.5-7-6-19.3
		s3.5-23,1-44S255.5,503.3,255.5,503.3z"/>
</g>
<g id="hamstrings">
	<path fill="none" d="M263,590c0,0,25.8,7.8,43.8,4.4c18-3.4,19.5-4.4,19.5-4.4l26.5,28.3c0,0,4,45.8,11.8,66.8s12,32.8,19.3,42
		s7.3,9.3,7.3,9.3s-2,17.5,0,34.8s9.8,34.8,9.8,34.8s-21.3-13.8-27.5-24.3s-15.8-25.8-15.8-25.8s1.5,13-6.5,20s-12.8,6.8-16.3,15.3
		s-5.3,8-5.3,8s-13.8-15.3-13.5-17.5s0.5-27.8-4.3-40.3S298.3,698,294,690s-21.8-33.5-26-50.8s-5-40.5-5-44.9
		C263,590,263,590,263,590z"/>
</g>
<g id="shin">
	<path fill="none" d="M353.3,931.3c0,0-22-15.8-26-24.3s-7-2.5-5-18s10-50.8,9.6-69.3s0-20,0-20s2.9-1.8,8.1-1.5s7.8,1,11.3,4.3
		s10.5,12,13.8,18s4.5,6.3,4.5,6.3s1.3-14.5,3.5-19s5.5-10.3,6.8-11.5s0.5-2.5,4,0s13.5,9.5,14,11s18.5,46.8,18.5,46.8
		s8.8,40.5,0,54.3s-15.5,19-15.5,19s-5.3-22.5-15.3-24.3s-19.5-0.3-21,2s-8.5,13.3-8.8,16.8S353.3,931.3,353.3,931.3z"/>
</g>
</svg>
