<?xml version="1.0" encoding="utf-8"?>
<!-- Generator: Adobe Illustrator 18.1.1, SVG Export Plug-In . SVG Version: 6.00 Build 0)  -->
<svg version="1.1" xmlns="http://www.w3.org/2000/svg" xmlns:xlink="http://www.w3.org/1999/xlink" x="0px" y="0px"
	 viewBox="0 0 500 1084" enable-background="new 0 0 500 1084" xml:space="preserve">
<g id="bg">
	<image overflow="visible" width="500" height="1084" xlink:href="img/front.png" >
	</image>
</g>
<g id="trapezuim">
	<path fill="none" d="M285,166.5l6.5,11.5c0,0,3.5,4.5,7,5.5s6-4.5,33-2.5s27,2,27,2l-17-13.5l-13.5-6c0,0-16.5-1-21.5-6
		S292,149,292,149l-7,10V166.5z"/>
</g>
<g id="shoulder">
	<path fill="none" d="M434.5,290c0,0,9.5-46.5,3.5-56s-31-43-44-45.5s-29.5-2-31,0s-10-0.9-13.5-1.7c-3.5-0.8-16.5-1.7-16.5,0
		c0,1.7,8.5,21.7,12,25.2s24.5,22.3,31.5,25.9c7,3.6,12.5,9.1,17.5,16.6s15,13.5,21,22s9,13.5,9,13.5H434.5z"/>
</g>
<g id="chest">
	<path fill="none" d="M254.3,215c0,1.3,0,74-2.7,75c-2.7,1,2.7-1,2.7-1s4.3,7.7,10.3,11.7s8.3,7,14.3,10s33.7,8,46.3,2.3
		c12.7-5.7,39.7-24.7,43.3-31c3.7-6.3,19-16.8,21-16.7c2,0,5-1,5.3-1.6c0.3-0.7-9-14-14-18s-30-28.1-30-28.1s-39.4-30.6-44.4-29.9
		c-5,0.7-33.7,1.7-43.3,13.7C253.7,213.3,254.3,215,254.3,215z"/>
</g>
<g id="biceps">
	<path fill="none" d="M418,380c0,0,2.3,0,7-3.3c4.7-3.3,3.3-1,5-5.7s2-2.3,2.3-11.3c0.3-9,1.1-48.4-4.7-60.7s-21-36-28.7-34
		s-17.1,2.1-24.5,10.5c-7.4,8.5-14.2,12.1-11.8,28.1c2.3,16,17.7,55,31,61.3c13.3,6.3,20,10.3,20,10.3L418,380z"/>
</g>
<g id="arm">
	<path fill="none" d="M478,496l8.3-29c0,0,4.7-33,1.7-44.7c-3-11.7-2-27-10-38.3s-12-9.3-15.3-15.3c-3.3-6,2.7-2-5.7-7.3
		c-8.3-5.3-11.7-13-16,6.7s-3,30.3-3,30.3l-8-15c0,0-14.7,28.3-18.7,32c-4,3.7-3.7,15-2.3,18.3c1.3,3.3-4,1.7,7,9
		c11,7.3,13.1,2.7,16.6,22.3s4.4,22.7,4.4,22.7s3-26,4.7-25.7c1.7,0.3,2.1-3.3,6.9,2.3c4.8,5.7,6.8,5.3,6.8,5.3s6.3-13.3,9.7-19
		c3.3-5.7,10.7,39.7,9.7,42C473.7,495,478,496,478,496z"/>
</g>
<g id="press">
	<path fill="none" d="M250,513.7c0,0,14-3,17-2.3c3,0.7,4.7-0.7,9.3-9.3c4.7-8.7,14-35.3,17-44.7c3-9.3,13.3-61,13.3-65.7
		c0-4.7,3.7-11,2.3-20.7s-6.3-2.7-2-11.7s8.3-13,4.7-22.7c-3.7-9.7-4-5-2-12.3c2-7.3,0.3-8.8,0.3-8.8s-30.7-0.9-36-5.2
		c-5.3-4.3-13.8-13.5-13.8-13.5s-5.2,0.5-5.9,2.5c-0.7,2-2.7,21-0.3,25.3c2.3,4.3-3,21.9-0.3,30.6c2.7,8.7-4.8,31.7-2.7,34.4
		c2.1,2.7-1.6,9.5-0.9,15.6s0.8,26.4,0.9,42.4s0.9,37.3,0,51.7S250,513.7,250,513.7z"/>
</g>
<g id="quadriceps">
	<path fill="none" d="M261,596.5c0,0,4.5,8,7.5,22.5s6.5,24.5,8,27.5s-1,17.5,0,27s14.2,66.5,36.6,80S340,770,340,770
		s1.5-14.5,7-23.5s9.9-13,15.2-12s10.8,5,16.8,3s6.5-2.5,9.5-8.5s11.5-26.5,13.5-35s4,2,3-28.5s-11.5-63.5-15-75s-6.5-24-11.5-29
		s-4-15-6.5-27s-8-26-16-35.5s-10.5-12-14.5-27.5S337,445,337,445h-14l-53,68.7c0,0,13,45.3,7.5,60.8s-3,18-3,18L261,596.5z"/>
</g>
<g id="shin">
	<path fill="none" d="M371,974.5c0,0-14.5-54.5-18.5-57.5S329,878.5,329,878.5s-7.5-12-8.5-24.5s3.5-50,9-52s23.5,17.5,27.5,31.5
		s21,57.5,20,76s0,61.5,0,61.5l8.5-18.5c0,0,3.5-38.5,0-59s-9.5-40-9.5-42s1.5-36,7.5-45s10-14,12-14S414,827,414,827s5.5,10,6,29
		s-1.5,54.5-2.5,66.5S416,964,416,964l-0.5,34L371,974.5z"/>
</g>
</svg>
